<?xml version="1.0" encoding="UTF-8"?>
<svg version="1.1" xmlns="http://www.w3.org/2000/svg" width="655" height="603">
<path d="M0 0 C11.27067238 0.41915724 20.52147057 4.64075455 30.0625 10.3125 C31.06539063 10.8796875 32.06828125 11.446875 33.1015625 12.03125 C38.24234862 14.98539188 38.24234862 14.98539188 40.0625 16.3125 C40.0625 16.9725 40.0625 17.6325 40.0625 18.3125 C40.92875 18.580625 41.795 18.84875 42.6875 19.125 C50.85035948 21.99711722 50.85035948 21.99711722 53.30078125 24.65625 C55.89527804 27.09542215 58.96547427 28.66465485 62.0625 30.375 C65.45984737 32.27208434 68.82177545 34.15201696 72.0625 36.3125 C72.0625 36.9725 72.0625 37.6325 72.0625 38.3125 C72.63613281 38.43753906 73.20976562 38.56257813 73.80078125 38.69140625 C76.12076154 39.32849928 78.09791386 40.18001346 80.25 41.25 C80.94480469 41.58902344 81.63960938 41.92804688 82.35546875 42.27734375 C84.0625 43.3125 84.0625 43.3125 85.0625 45.3125 C86.718111 46.24643441 88.41200522 47.11352783 90.125 47.9375 C91.04410156 48.38351563 91.96320313 48.82953125 92.91015625 49.2890625 C93.62042969 49.62679687 94.33070313 49.96453125 95.0625 50.3125 C95.0625 50.9725 95.0625 51.6325 95.0625 52.3125 C95.619375 52.415625 96.17625 52.51875 96.75 52.625 C99.5394101 53.45428408 101.6764064 54.65549056 104.0625 56.3125 C104.0625 56.9725 104.0625 57.6325 104.0625 58.3125 C104.63613281 58.43753906 105.20976562 58.56257813 105.80078125 58.69140625 C108.12076154 59.32849928 110.09791386 60.18001346 112.25 61.25 C112.94480469 61.58902344 113.63960938 61.92804688 114.35546875 62.27734375 C116.0625 63.3125 116.0625 63.3125 117.0625 65.3125 C118.94263106 66.43474855 118.94263106 66.43474855 121.125 67.4375 C121.85847656 67.79070312 122.59195312 68.14390625 123.34765625 68.5078125 C123.91355469 68.77335937 124.47945313 69.03890625 125.0625 69.3125 C125.0625 69.9725 125.0625 70.6325 125.0625 71.3125 C126.3 71.5909375 126.3 71.5909375 127.5625 71.875 C132.28492511 73.81456746 135.3961587 76.8272126 139.0625 80.3125 C140.031875 81.199375 141.00125 82.08625 142 83 C143.9873534 85.22824472 144.73759116 86.38832043 145.0625 89.3125 C145.7225 89.3125 146.3825 89.3125 147.0625 89.3125 C156.4099759 104.4753903 154.36058082 123.33955432 154.328125 140.4765625 C154.32947509 143.00230954 154.33141847 145.52805633 154.33392334 148.05380249 C154.33685734 153.32364918 154.33282739 158.59344468 154.32324219 163.86328125 C154.31235099 169.92036253 154.3158979 175.97730918 154.326895 182.03438723 C154.33712831 187.91035451 154.33596472 193.78627139 154.33013153 199.66224289 C154.32880577 202.14114781 154.33040472 204.62005622 154.33509064 207.09895706 C154.37168198 231.88595907 154.37168198 231.88595907 152.0625 242.3125 C151.4025 242.3125 150.7425 242.3125 150.0625 242.3125 C149.93875 243.199375 149.815 244.08625 149.6875 245 C149.11837264 248.01637502 148.29635564 250.51576054 147.0625 253.3125 C146.4025 253.3125 145.7425 253.3125 145.0625 253.3125 C144.835625 254.01375 144.60875 254.715 144.375 255.4375 C140.71245867 263.46020958 134.41040437 266.94133751 127.0625 271.3125 C126.19753906 271.84101563 125.33257812 272.36953125 124.44140625 272.9140625 C108.99423077 282.3125 108.99423077 282.3125 106.0625 282.3125 C106.0625 282.9725 106.0625 283.6325 106.0625 284.3125 C104.79558493 284.98658308 103.52379251 285.65150497 102.25 286.3125 C101.54230469 286.68375 100.83460938 287.055 100.10546875 287.4375 C98.0625 288.3125 98.0625 288.3125 95.0625 288.3125 C94.7325 289.3025 94.4025 290.2925 94.0625 291.3125 C92.12890625 292.48828125 92.12890625 292.48828125 89.625 293.625 C81.97131684 297.26077246 74.86678195 301.7435582 67.75390625 306.33203125 C66.0625 307.3125 66.0625 307.3125 63.0625 308.3125 C62.05841564 309.30839889 61.05875706 310.30877101 60.0625 311.3125 C58.125 312.48046875 58.125 312.48046875 56.0625 313.5 C55.381875 313.84417969 54.70125 314.18835938 54 314.54296875 C52.0625 315.3125 52.0625 315.3125 49.0625 315.3125 C48.7325 316.3025 48.4025 317.2925 48.0625 318.3125 C44.84965662 320.19829937 42.81616417 321.3125 39.0625 321.3125 C39.0625 321.9725 39.0625 322.6325 39.0625 323.3125 C38.22847656 323.75980469 37.39445312 324.20710938 36.53515625 324.66796875 C35.40980469 325.27253906 34.28445313 325.87710937 33.125 326.5 C32.53614014 326.81590088 31.94728027 327.13180176 31.34057617 327.45727539 C27.11330695 329.73057615 22.92675745 332.06614737 18.76953125 334.46484375 C17.0625 335.3125 17.0625 335.3125 15.0625 335.3125 C15.0625 335.9725 15.0625 336.6325 15.0625 337.3125 C14.26199219 337.74949219 14.26199219 337.74949219 13.4453125 338.1953125 C8.27197966 341.0415406 3.22245981 344.02757294 -1.7734375 347.17578125 C-3.9375 348.3125 -3.9375 348.3125 -6.9375 348.3125 C-7.2675 349.3025 -7.5975 350.2925 -7.9375 351.3125 C-10.30859375 352.70703125 -10.30859375 352.70703125 -13.375 354.125 C-18.27634262 356.47114031 -22.91198457 359.02001963 -27.54296875 361.85546875 C-29.98572195 363.34184223 -32.44924836 364.77868129 -34.9375 366.1875 C-36.0203125 366.80238281 -36.0203125 366.80238281 -37.125 367.4296875 C-38.9375 368.3125 -38.9375 368.3125 -40.9375 368.3125 C-40.9375 368.9725 -40.9375 369.6325 -40.9375 370.3125 C-42.20441507 370.98658308 -43.47620749 371.65150497 -44.75 372.3125 C-45.45769531 372.68375 -46.16539062 373.055 -46.89453125 373.4375 C-48.9375 374.3125 -48.9375 374.3125 -51.9375 374.3125 C-51.9375 374.9725 -51.9375 375.6325 -51.9375 376.3125 C-56.94169911 378.23719196 -61.63227234 378.95136619 -66.9375 379.3125 C-67.72253906 379.36664063 -68.50757813 379.42078125 -69.31640625 379.4765625 C-80.79832874 379.88202365 -90.24191989 376.21000837 -99.9375 370.3125 C-99.9375 369.6525 -99.9375 368.9925 -99.9375 368.3125 C-100.59105469 368.07789063 -101.24460937 367.84328125 -101.91796875 367.6015625 C-105.86874152 365.91494541 -109.52454258 363.81823525 -113.25 361.6875 C-114.36084961 361.05714844 -114.36084961 361.05714844 -115.49414062 360.4140625 C-117.31019011 359.38301505 -119.12406533 358.34813954 -120.9375 357.3125 C-120.9375 356.6525 -120.9375 355.9925 -120.9375 355.3125 C-121.824375 355.044375 -122.71125 354.77625 -123.625 354.5 C-126.7284666 353.3874365 -129.24860685 352.21054222 -131.9375 350.3125 C-131.9375 349.6525 -131.9375 348.9925 -131.9375 348.3125 C-132.50984375 348.20550781 -133.0821875 348.09851563 -133.671875 347.98828125 C-136.26962011 347.21343659 -137.98089105 346.06764485 -140.1875 344.5 C-144.29383155 341.67391776 -148.43381571 339.44151439 -152.9375 337.3125 C-152.9375 336.6525 -152.9375 335.9925 -152.9375 335.3125 C-153.824375 335.044375 -154.71125 334.77625 -155.625 334.5 C-158.7284666 333.3874365 -161.24860685 332.21054222 -163.9375 330.3125 C-163.9375 329.6525 -163.9375 328.9925 -163.9375 328.3125 C-164.71287109 328.18294922 -164.71287109 328.18294922 -165.50390625 328.05078125 C-168.8992383 327.02073669 -171.82447852 325.27116684 -174.875 323.5 C-175.48279297 323.15646484 -176.09058594 322.81292969 -176.71679688 322.45898438 C-180.39865748 320.34201382 -183.63006299 317.99020977 -186.9375 315.3125 C-188.51891337 314.35711514 -190.12246159 313.43699825 -191.75 312.5625 C-192.54019531 312.13453125 -193.33039063 311.7065625 -194.14453125 311.265625 C-194.73621094 310.95109375 -195.32789063 310.6365625 -195.9375 310.3125 C-195.9375 309.6525 -195.9375 308.9925 -195.9375 308.3125 C-196.494375 308.209375 -197.05125 308.10625 -197.625 308 C-202.87782686 306.43834877 -206.22523669 303.22014559 -209.9375 299.3125 C-210.7728125 298.57 -210.7728125 298.57 -211.625 297.8125 C-213.34955886 295.84157559 -214.07586409 293.76484835 -214.9375 291.3125 C-215.5975 291.3125 -216.2575 291.3125 -216.9375 291.3125 C-217.89431629 289.59394648 -218.82658912 287.8617314 -219.75 286.125 C-220.27207031 285.16207031 -220.79414063 284.19914062 -221.33203125 283.20703125 C-225.52642664 274.0367633 -226.38418197 264.02015166 -226.34155273 254.07495117 C-226.34841599 252.92832504 -226.35527924 251.78169891 -226.36235046 250.60032654 C-226.38048422 246.8519106 -226.37679957 243.10391866 -226.37109375 239.35546875 C-226.37566237 236.7219479 -226.38096996 234.08842824 -226.38697815 231.45491028 C-226.39696401 225.95028715 -226.39375398 220.44578183 -226.38354492 214.94116211 C-226.37207983 208.62049856 -226.38612816 202.30026015 -226.4129414 195.97965258 C-226.43795625 189.84844415 -226.44024453 183.71742866 -226.43382454 177.58617592 C-226.43367226 175.00089118 -226.43963831 172.41559788 -226.45211601 169.83034325 C-226.59939142 134.31506867 -226.59939142 134.31506867 -216.9375 123.0625 C-216.51210937 122.54816406 -216.08671875 122.03382813 -215.6484375 121.50390625 C-208.62976019 113.12885878 -208.62976019 113.12885878 -203.9375 111.3125 C-202.9475 111.3125 -201.9575 111.3125 -200.9375 111.3125 C-200.4425 109.8275 -200.4425 109.8275 -199.9375 108.3125 C-197.56640625 106.91796875 -197.56640625 106.91796875 -194.5 105.5 C-189.59865738 103.15385969 -184.96301543 100.60498037 -180.33203125 97.76953125 C-177.88927805 96.28315777 -175.42575164 94.84631871 -172.9375 93.4375 C-172.215625 93.02757812 -171.49375 92.61765625 -170.75 92.1953125 C-168.9375 91.3125 -168.9375 91.3125 -166.9375 91.3125 C-166.9375 90.6525 -166.9375 89.9925 -166.9375 89.3125 C-160.64544899 85.83153642 -154.33702153 82.46684773 -147.8359375 79.390625 C-145.7761607 78.45391647 -145.7761607 78.45391647 -144.9375 76.3125 C-143.11360727 75.31738413 -141.25221809 74.39044513 -139.375 73.5 C-134.33471408 71.04248781 -129.62372727 68.37807367 -124.9375 65.3125 C-123.52318702 64.41295534 -122.10651839 63.51710347 -120.6875 62.625 C-120.06359375 62.22925781 -119.4396875 61.83351562 -118.796875 61.42578125 C-113.59714912 58.3125 -113.59714912 58.3125 -109.9375 58.3125 C-109.9375 57.6525 -109.9375 56.9925 -109.9375 56.3125 C-103.3125 52.3125 -103.3125 52.3125 -99.9375 52.3125 C-99.6075 51.3225 -99.2775 50.3325 -98.9375 49.3125 C-97.00390625 48.13671875 -97.00390625 48.13671875 -94.5 47 C-87.68642968 43.7633111 -81.35972516 39.85371029 -75 35.8125 C-70.89287819 33.2224987 -66.63627632 30.93286139 -62.35546875 28.64453125 C-59.7939829 27.2777609 -59.7939829 27.2777609 -56.9375 25.3125 C-55.9475 25.3125 -54.9575 25.3125 -53.9375 25.3125 C-53.9375 24.6525 -53.9375 23.9925 -53.9375 23.3125 C-53.22464844 22.92578125 -52.51179687 22.5390625 -51.77734375 22.140625 C-50.81957031 21.61984375 -49.86179687 21.0990625 -48.875 20.5625 C-47.87210938 20.01722656 -46.86921875 19.47195312 -45.8359375 18.91015625 C-43.53330887 17.64091756 -41.26232741 16.33862605 -39 15 C-36.53168596 13.63990859 -34.68790415 12.75256466 -31.9375 12.3125 C-31.9375 11.6525 -31.9375 10.9925 -31.9375 10.3125 C-21.19233182 4.4490199 -12.31590088 0.97745245 0 0 Z M-9.1875 39.8125 C-9.8371875 40.14636719 -10.486875 40.48023438 -11.15625 40.82421875 C-12.75372504 41.64644855 -14.34612822 42.47851907 -15.9375 43.3125 C-15.9375 43.9725 -15.9375 44.6325 -15.9375 45.3125 C-16.7625 45.55226563 -17.5875 45.79203125 -18.4375 46.0390625 C-22.54920597 47.53506266 -26.15429183 49.51144417 -29.9375 51.6875 C-30.62328125 52.07421875 -31.3090625 52.4609375 -32.015625 52.859375 C-36.10783168 55.18662231 -40.02750625 57.68705751 -43.9375 60.3125 C-45.92257948 61.34180047 -47.91864251 62.35113929 -49.9375 63.3125 C-49.9375 63.9725 -49.9375 64.6325 -49.9375 65.3125 C-50.989375 65.580625 -52.04125 65.84875 -53.125 66.125 C-56.52822912 67.18502219 -59.06908918 68.22638304 -61.9375 70.3125 C-61.9375 70.9725 -61.9375 71.6325 -61.9375 72.3125 C-62.845 72.60125 -63.7525 72.89 -64.6875 73.1875 C-67.25952908 74.07781776 -69.55096766 75.02744413 -71.9375 76.3125 C-71.9375 76.9725 -71.9375 77.6325 -71.9375 78.3125 C-72.51113281 78.43109375 -73.08476562 78.5496875 -73.67578125 78.671875 C-76.09098348 79.35597373 -77.9518408 80.31164698 -80.125 81.5625 C-80.90875 82.00980469 -81.6925 82.45710938 -82.5 82.91796875 C-83.304375 83.37816406 -84.10875 83.83835938 -84.9375 84.3125 C-86.49932198 85.16790579 -88.06180406 86.02210762 -89.625 86.875 C-92.21229396 88.30541035 -94.61069154 89.77027025 -97.0625 91.4375 C-99.34715744 92.92749398 -101.25982461 93.92728686 -103.75 94.9375 C-107.02095248 95.94262518 -107.02095248 95.94262518 -107.9375 98.3125 C-109.30517361 99.05444059 -110.70882416 99.73044362 -112.125 100.375 C-116.67770303 102.56970333 -120.85000315 105.10354622 -125.0625 107.875 C-129.26745837 110.63571237 -133.43339149 113.21514592 -137.99609375 115.34375 C-141.36870511 117.02666271 -144.5370762 119.0579201 -147.73828125 121.04296875 C-149.9375 122.3125 -149.9375 122.3125 -152.9375 123.3125 C-153.2675 123.9725 -153.5975 124.6325 -153.9375 125.3125 C-155.57421875 126.2421875 -155.57421875 126.2421875 -157.625 127.1875 C-161.29486811 128.94720503 -164.55952808 131.03604067 -167.9375 133.3125 C-169.92257948 134.34180047 -171.91864251 135.35113929 -173.9375 136.3125 C-173.28160262 138.29514795 -173.28160262 138.29514795 -171.9375 140.3125 C-170.29386866 141.03409424 -168.62699614 141.70601421 -166.9375 142.3125 C-166.6075 142.9725 -166.2775 143.6325 -165.9375 144.3125 C-163.20453356 145.66117888 -160.41020766 146.81409137 -157.6015625 147.99609375 C-155.08921002 149.23753479 -153.82312195 150.31564754 -151.9375 152.3125 C-150.67043826 153.06396086 -149.37512515 153.76880417 -148.0625 154.4375 C-142.7592183 157.28443355 -137.93634328 160.73091006 -133.05078125 164.2265625 C-127.89934589 167.89444408 -127.89934589 167.89444408 -121.9375 169.3125 C-121.9375 169.9725 -121.9375 170.6325 -121.9375 171.3125 C-120.64836513 171.98404933 -119.35609796 172.64958859 -118.0625 173.3125 C-117.34320313 173.68375 -116.62390625 174.055 -115.8828125 174.4375 C-113.98901023 175.44923746 -113.98901023 175.44923746 -111.9375 175.3125 C-111.6075 176.3025 -111.2775 177.2925 -110.9375 178.3125 C-109.10728391 179.47404965 -109.10728391 179.47404965 -106.9375 180.375 C-103.0396814 182.1081372 -103.0396814 182.1081372 -101.9375 184.3125 C-100.32651347 185.25011121 -98.67338285 186.11641401 -97 186.9375 C-96.10410156 187.38351562 -95.20820313 187.82953125 -94.28515625 188.2890625 C-92.05877907 189.44570609 -92.05877907 189.44570609 -89.9375 189.3125 C-89.9375 189.9725 -89.9375 190.6325 -89.9375 191.3125 C-88.64836513 191.98404933 -87.35609796 192.64958859 -86.0625 193.3125 C-84.98355469 193.869375 -84.98355469 193.869375 -83.8828125 194.4375 C-81.98901023 195.44923746 -81.98901023 195.44923746 -79.9375 195.3125 C-79.6075 196.3025 -79.2775 197.2925 -78.9375 198.3125 C-75.75699255 200.60127639 -72.38343755 202.3125 -68.4375 202.3125 C-61.68840712 200.01880935 -61.68840712 200.01880935 -56.9375 195.3125 C-54.87109375 194.2421875 -54.87109375 194.2421875 -52.375 193.1875 C-51.13556641 192.65769531 -51.13556641 192.65769531 -49.87109375 192.1171875 C-49.23300781 191.85164062 -48.59492188 191.58609375 -47.9375 191.3125 C-47.9375 190.6525 -47.9375 189.9925 -47.9375 189.3125 C-47.36128906 189.19261719 -46.78507812 189.07273437 -46.19140625 188.94921875 C-43.8173483 188.27855767 -42.0084736 187.35723055 -39.875 186.125 C-35.42942586 183.58572338 -30.93417196 181.15343596 -26.41796875 178.7421875 C-23.93927202 177.38175135 -23.93927202 177.38175135 -21.84375 175.73046875 C-19.99936001 174.35851472 -18.3872712 173.56132855 -16.25 172.75 C-12.86477108 171.70243022 -12.86477108 171.70243022 -11.9375 169.3125 C-10.281889 168.37856559 -8.58799478 167.51147217 -6.875 166.6875 C-5.95589844 166.24148438 -5.03679687 165.79546875 -4.08984375 165.3359375 C-3.02443359 164.82933594 -3.02443359 164.82933594 -1.9375 164.3125 C-1.9375 163.6525 -1.9375 162.9925 -1.9375 162.3125 C-1.10992187 162.15201172 -1.10992187 162.15201172 -0.265625 161.98828125 C2.52648658 161.17781933 4.7807951 159.92860491 7.3125 158.5 C11.84262077 155.97650991 16.40740671 153.59613067 21.0625 151.3125 C21.0625 150.6525 21.0625 149.9925 21.0625 149.3125 C21.743125 149.044375 22.42375 148.77625 23.125 148.5 C26.45960809 147.15196694 29.75993237 145.73713702 33.0625 144.3125 C33.0625 143.6525 33.0625 142.9925 33.0625 142.3125 C33.97 142.02375 34.8775 141.735 35.8125 141.4375 C38.38452908 140.54718224 40.67596766 139.59755587 43.0625 138.3125 C43.0625 137.6525 43.0625 136.9925 43.0625 136.3125 C43.63484375 136.19003906 44.2071875 136.06757813 44.796875 135.94140625 C47.16203191 135.28487132 49.13456797 134.37526488 51.3125 133.25 C52.01890625 132.88777344 52.7253125 132.52554688 53.453125 132.15234375 C53.98421875 131.87519531 54.5153125 131.59804687 55.0625 131.3125 C55.0625 130.6525 55.0625 129.9925 55.0625 129.3125 C55.92875 129.044375 56.795 128.77625 57.6875 128.5 C60.98041964 127.34138013 63.97377875 125.93040161 67.0625 124.3125 C67.0625 123.6525 67.0625 122.9925 67.0625 122.3125 C67.949375 122.02375 68.83625 121.735 69.75 121.4375 C75.03023127 119.90939572 75.03023127 119.90939572 79.4453125 116.8828125 C81.2583288 115.1223474 82.97412203 114.20697477 85.25 113.125 C85.96542969 112.78082031 86.68085938 112.43664062 87.41796875 112.08203125 C87.96066406 111.82808594 88.50335938 111.57414062 89.0625 111.3125 C89.0625 110.6525 89.0625 109.9925 89.0625 109.3125 C89.62582031 109.19519531 90.18914062 109.07789063 90.76953125 108.95703125 C93.31030887 108.24284333 95.42263633 107.24254292 97.75 106 C98.53761719 105.59136719 99.32523437 105.18273437 100.13671875 104.76171875 C102.23448986 103.46050687 102.23448986 103.46050687 102.83203125 101.14453125 C102.94611328 100.23767578 102.94611328 100.23767578 103.0625 99.3125 C98.98038049 96.68090891 94.89539697 94.05388477 90.80664062 91.43261719 C89.34276181 90.49248897 87.88195002 89.54758744 86.421875 88.6015625 C83.01521074 86.16814279 83.01521074 86.16814279 79.0625 85.3125 C79.0625 84.6525 79.0625 83.9925 79.0625 83.3125 C78.39863281 82.99796875 77.73476563 82.6834375 77.05078125 82.359375 C72.26299608 80.03887182 68.15554672 77.74180941 64.0625 74.3125 C62.4073379 73.33887523 60.74997434 72.36822171 59.0703125 71.4375 C55.89942565 69.66081632 52.79896184 67.7688855 49.6875 65.890625 C47.92217349 64.82932752 46.15119836 63.7773752 44.375 62.734375 C40.00508836 60.1592485 35.98577525 57.54343256 32.0625 54.3125 C29.32716879 52.70348164 28.30364485 52.3125 25.0625 52.3125 C24.7325 51.3225 24.4025 50.3325 24.0625 49.3125 C22.27300372 48.07718833 22.27300372 48.07718833 20.125 47.125 C19.05958984 46.60873047 19.05958984 46.60873047 17.97265625 46.08203125 C16.09653704 45.18794038 16.09653704 45.18794038 14.0625 45.3125 C14.0625 44.6525 14.0625 43.9925 14.0625 43.3125 C13.44761719 42.97476563 12.83273437 42.63703125 12.19921875 42.2890625 C11.39097656 41.84304687 10.58273437 41.39703125 9.75 40.9375 C8.94949219 40.49664062 8.14898437 40.05578125 7.32421875 39.6015625 C5.52722057 38.57736665 3.78349292 37.45982862 2.0625 36.3125 C-2.49868044 36.3125 -5.271223 37.75088264 -9.1875 39.8125 Z M108.171875 141.60546875 C106.19364198 142.69150874 104.20494213 143.75885184 102.203125 144.80078125 C101.29046875 145.27902344 100.3778125 145.75726563 99.4375 146.25 C98.62023437 146.67152344 97.80296875 147.09304688 96.9609375 147.52734375 C95.52621094 148.41099609 95.52621094 148.41099609 94.0625 149.3125 C93.32960251 149.62631622 92.59670502 149.94013245 91.84159851 150.26345825 C88.73003665 151.96981837 87.10560764 153.3776028 85.0625 156.3125 C83.32069862 163.22530795 84.01970777 170.71545697 84.18359375 177.77734375 C84.2003906 179.89723505 84.21319669 182.01716142 84.22218323 184.13710022 C84.25646263 189.70290464 84.34479528 195.26657773 84.44451904 200.83154297 C84.53677122 206.51565723 84.57773051 212.20011769 84.62304688 217.88476562 C84.71942051 229.02827756 84.87292065 240.1702112 85.0625 251.3125 C87.9067426 252.61013544 87.9067426 252.61013544 90.0625 251.5625 C92.07256853 250.43084073 92.07256853 250.43084073 93.375 248.875 C95.88404909 246.5518064 98.93995894 245.64247119 102.0625 244.3125 C102.3925 243.6525 102.7225 242.9925 103.0625 242.3125 C104.26981771 241.704519 105.50412487 241.1494541 106.75 240.625 C111.36293275 238.36001683 114.48444598 235.79248321 117.0625 231.3125 C118.42095787 224.82962474 118.21055243 217.95497861 118.1953125 211.35546875 C118.19663177 210.42544037 118.19795105 209.49541199 118.1993103 208.53720093 C118.20121566 205.52476604 118.19490616 202.51242536 118.1875 199.5 C118.18661377 198.47180145 118.18572754 197.44360291 118.18481445 196.38424683 C118.16495165 176.68206425 117.74439083 157.00209774 117.0625 137.3125 C114.17273217 137.3125 110.62999545 140.24586068 108.171875 141.60546875 Z M-188.9375 173.3125 C-188.9375 204.0025 -188.9375 234.6925 -188.9375 266.3125 C-188.2775 266.3125 -187.6175 266.3125 -186.9375 266.3125 C-186.875625 267.01375 -186.81375 267.715 -186.75 268.4375 C-185.37842874 273.29075216 -182.86784083 276.21578748 -178.55859375 278.6640625 C-176.81562841 279.51086831 -175.0641934 280.34046491 -173.3046875 281.15234375 C-170.5070915 282.52344278 -168.30108018 284.29650514 -165.9375 286.3125 C-163.20216879 287.92151836 -162.17864485 288.3125 -158.9375 288.3125 C-158.6075 289.3025 -158.2775 290.2925 -157.9375 291.3125 C-156.3109566 292.37289384 -156.3109566 292.37289384 -154.3125 293.1875 C-151.34682256 294.56651339 -148.75497686 296.05415358 -146.125 298 C-143.13354907 300.41444552 -143.13354907 300.41444552 -139.9375 301.3125 C-139.6075 301.9725 -139.2775 302.6325 -138.9375 303.3125 C-136.93451781 304.66478176 -136.93451781 304.66478176 -134.5625 305.9375 C-133.77101562 306.38351562 -132.97953125 306.82953125 -132.1640625 307.2890625 C-129.8916128 308.52132123 -129.8916128 308.52132123 -126.9375 308.3125 C-126.9375 308.9725 -126.9375 309.6325 -126.9375 310.3125 C-124.9957147 311.73963215 -124.9957147 311.73963215 -122.5 313.125 C-121.14261719 313.91583984 -121.14261719 313.91583984 -119.7578125 314.72265625 C-116.41436646 316.60739661 -113.04743781 318.44434298 -109.65234375 320.234375 C-107.9375 321.3125 -107.9375 321.3125 -106.9375 323.3125 C-105.32651347 324.25011121 -103.67338285 325.11641401 -102 325.9375 C-101.10410156 326.38351562 -100.20820313 326.82953125 -99.28515625 327.2890625 C-97.05877907 328.44570609 -97.05877907 328.44570609 -94.9375 328.3125 C-94.9375 328.9725 -94.9375 329.6325 -94.9375 330.3125 C-92.03201118 332.35419485 -90.53607954 333.3125 -86.9375 333.3125 C-86.910307 331.72926312 -86.89101694 330.14588938 -86.875 328.5625 C-86.86339844 327.68078125 -86.85179687 326.7990625 -86.83984375 325.890625 C-86.8281051 323.42949925 -86.8281051 323.42949925 -87.43551636 321.60806274 C-88.1401666 318.38570903 -88.0649031 315.30305102 -88.06689453 312.00537109 C-88.06952301 310.91203712 -88.06952301 310.91203712 -88.07220459 309.7966156 C-88.07659758 307.39303185 -88.07369472 304.98952196 -88.0703125 302.5859375 C-88.07098613 300.91492702 -88.07195664 299.24391664 -88.07321167 297.57290649 C-88.07468506 294.07431097 -88.07254505 290.57574099 -88.06787109 287.07714844 C-88.06216519 282.58670208 -88.06546052 278.09631538 -88.07144356 273.6058712 C-88.07505132 270.15729317 -88.07390974 266.70872936 -88.07131577 263.26015091 C-88.07064755 261.60389829 -88.07147126 259.9476444 -88.07379532 258.29139328 C-88.0763263 255.98117379 -88.07247533 253.67105203 -88.06689453 251.36083984 C-88.06609894 250.04497894 -88.06530334 248.72911804 -88.06448364 247.37338257 C-87.9375 244.3125 -87.9375 244.3125 -86.9375 242.3125 C-86.89727609 239.9795134 -86.89429753 237.64543334 -86.9375 235.3125 C-87.5975 235.3125 -88.2575 235.3125 -88.9375 235.3125 C-89.2675 234.3225 -89.5975 233.3325 -89.9375 232.3125 C-92.25258283 230.85110397 -94.52594343 229.52935924 -96.9375 228.25 C-103.81275219 224.56199563 -103.81275219 224.56199563 -104.9375 222.3125 C-106.76139273 221.31738413 -108.62278191 220.39044513 -110.5 219.5 C-114.32523617 217.64437292 -117.99157638 215.7457766 -121.5625 213.4375 C-124.55486694 211.13489558 -124.55486694 211.13489558 -126.9375 211.3125 C-127.2675 210.3225 -127.5975 209.3325 -127.9375 208.3125 C-129.98717907 207.02086243 -129.98717907 207.02086243 -132.5 205.9375 C-136.67196497 203.96823677 -140.50663721 201.78592297 -144.34375 199.23046875 C-145.91981076 198.14613018 -145.91981076 198.14613018 -147.9375 198.3125 C-147.9375 197.6525 -147.9375 196.9925 -147.9375 196.3125 C-149.39287568 195.47401196 -150.85190373 194.64186066 -152.3125 193.8125 C-153.53066406 193.11640625 -153.53066406 193.11640625 -154.7734375 192.40625 C-156.83086874 191.16214141 -156.83086874 191.16214141 -158.9375 191.3125 C-158.9375 190.6525 -158.9375 189.9925 -158.9375 189.3125 C-159.69675781 188.91417969 -160.45601562 188.51585937 -161.23828125 188.10546875 C-162.23214844 187.57566406 -163.22601563 187.04585937 -164.25 186.5 C-165.72919922 185.71689453 -165.72919922 185.71689453 -167.23828125 184.91796875 C-169.60048249 183.5129547 -171.05382548 182.24792382 -172.9375 180.3125 C-174.38879403 179.41178897 -175.8707599 178.55919493 -177.375 177.75 C-178.13683594 177.33621094 -178.89867187 176.92242187 -179.68359375 176.49609375 C-180.79927734 175.91021484 -180.79927734 175.91021484 -181.9375 175.3125 C-182.62972656 174.93222656 -183.32195312 174.55195313 -184.03515625 174.16015625 C-186.0471038 173.10899579 -186.0471038 173.10899579 -188.9375 173.3125 Z M47.0625 176.3125 C47.0625 176.9725 47.0625 177.6325 47.0625 178.3125 C46.2890625 178.43625 46.2890625 178.43625 45.5 178.5625 C42.82755014 179.38479227 40.60964747 180.63926973 38.2109375 182.05859375 C35.54453393 183.61480383 32.83728642 185.08782499 30.125 186.5625 C29.16722656 187.08328125 28.20945312 187.6040625 27.22265625 188.140625 C26.50980469 188.52734375 25.79695312 188.9140625 25.0625 189.3125 C25.0625 189.9725 25.0625 190.6325 25.0625 191.3125 C24.11375 191.621875 23.165 191.93125 22.1875 192.25 C19.20169592 193.18644742 19.20169592 193.18644742 17.0625 194.3125 C17.0625 226.9825 17.0625 259.6525 17.0625 293.3125 C19.0425 292.3225 19.0425 292.3225 21.0625 291.3125 C22.5475 290.8175 22.5475 290.8175 24.0625 290.3125 C24.5575 289.3225 24.5575 289.3225 25.0625 288.3125 C26.96775186 287.34316133 28.87640424 286.37970442 30.8046875 285.45703125 C33.75046264 283.96375769 36.47197392 282.19092864 39.2421875 280.3984375 C41.0625 279.3125 41.0625 279.3125 43.875 278.3125 C47.01527527 276.87694559 47.62227515 275.45780859 49.0625 272.3125 C49.48403293 269.18299057 49.44174087 266.08587475 49.40307617 262.93237305 C49.40351425 261.99530014 49.40395233 261.05822723 49.40440369 260.09275818 C49.40231778 257.00303128 49.37899577 253.91385057 49.35546875 250.82421875 C49.3498721 248.67902422 49.34560233 246.53382584 49.34260559 244.3886261 C49.33116231 238.7480507 49.30169936 233.10770779 49.26849365 227.46722412 C49.23778176 221.7093012 49.22409785 215.95134063 49.20898438 210.19335938 C49.17682935 198.89963755 49.12563906 187.60608812 49.0625 176.3125 C48.4025 176.3125 47.7425 176.3125 47.0625 176.3125 Z M-37.640625 225.9453125 C-39.70213397 227.17240118 -41.77713302 228.27195627 -43.9375 229.3125 C-43.9375 229.9725 -43.9375 230.6325 -43.9375 231.3125 C-44.55625 231.456875 -45.175 231.60125 -45.8125 231.75 C-47.97008322 232.24402225 -47.97008322 232.24402225 -49.9375 233.3125 C-49.9375 233.9725 -49.9375 234.6325 -49.9375 235.3125 C-50.5975 235.3125 -51.2575 235.3125 -51.9375 235.3125 C-51.9375 267.3225 -51.9375 299.3325 -51.9375 332.3125 C-46.93191484 331.40292193 -46.93191484 331.40292193 -43.9375 328.3125 C-42.38323109 327.44569619 -40.79587433 326.63673008 -39.1875 325.875 C-28.90224267 321.09591962 -28.90224267 321.09591962 -19.9375 314.3125 C-19.84220388 311.29899762 -19.81198096 308.30845894 -19.82397461 305.29467773 C-19.82382858 304.34843536 -19.82368256 303.40219299 -19.8235321 302.42727661 C-19.82423164 299.28352608 -19.83202591 296.13983399 -19.83984375 292.99609375 C-19.84170779 290.82275932 -19.84313176 288.64942448 -19.84413147 286.47608948 C-19.84795779 280.74348805 -19.85778903 275.01091177 -19.86883545 269.27832031 C-19.87904713 263.43359721 -19.88362857 257.58887007 -19.88867188 251.74414062 C-19.8994112 240.266916 -19.91648898 228.78971009 -19.9375 217.3125 C-25.84382746 217.3125 -32.73193355 222.92818686 -37.640625 225.9453125 Z " fill="#F3F3ED" transform="translate(366.9375,114.6875)"/>
<path d="M0 0 C0.99 0.495 0.99 0.495 2 1 C5.35291842 14.22441573 4.29120753 28.65621914 4.265625 42.1640625 C4.26697509 44.68980954 4.26891847 47.21555633 4.27142334 49.74130249 C4.27435734 55.01114918 4.27032739 60.28094468 4.26074219 65.55078125 C4.24985099 71.60786253 4.2533979 77.66480918 4.264395 83.72188723 C4.27462831 89.59785451 4.27346472 95.47377139 4.26763153 101.34974289 C4.26630577 103.82864781 4.26790472 106.30755622 4.27259064 108.78645706 C4.30918198 133.57345907 4.30918198 133.57345907 2 144 C1.34 144 0.68 144 0 144 C-0.185625 145.3303125 -0.185625 145.3303125 -0.375 146.6875 C-0.94412736 149.70387502 -1.76614436 152.20326054 -3 155 C-3.66 155 -4.32 155 -5 155 C-5.226875 155.70125 -5.45375 156.4025 -5.6875 157.125 C-9.35004133 165.14770958 -15.65209563 168.62883751 -23 173 C-23.86496094 173.52851563 -24.72992188 174.05703125 -25.62109375 174.6015625 C-41.06826923 184 -41.06826923 184 -44 184 C-44 184.66 -44 185.32 -44 186 C-45.26691507 186.67408308 -46.53870749 187.33900497 -47.8125 188 C-48.52019531 188.37125 -49.22789062 188.7425 -49.95703125 189.125 C-52 190 -52 190 -55 190 C-55.33 190.99 -55.66 191.98 -56 193 C-57.93359375 194.17578125 -57.93359375 194.17578125 -60.4375 195.3125 C-68.09118316 198.94827246 -75.19571805 203.4310582 -82.30859375 208.01953125 C-84 209 -84 209 -87 210 C-88.00408436 210.99589889 -89.00374294 211.99627101 -90 213 C-91.9375 214.16796875 -91.9375 214.16796875 -94 215.1875 C-94.680625 215.53167969 -95.36125 215.87585938 -96.0625 216.23046875 C-98 217 -98 217 -101 217 C-101.33 217.99 -101.66 218.98 -102 220 C-105.21284338 221.88579937 -107.24633583 223 -111 223 C-111 223.66 -111 224.32 -111 225 C-111.83402344 225.44730469 -112.66804687 225.89460937 -113.52734375 226.35546875 C-114.65269531 226.96003906 -115.77804687 227.56460938 -116.9375 228.1875 C-117.52635986 228.50340088 -118.11521973 228.81930176 -118.72192383 229.14477539 C-122.94919305 231.41807615 -127.13574255 233.75364737 -131.29296875 236.15234375 C-133 237 -133 237 -135 237 C-135 237.66 -135 238.32 -135 239 C-135.53367187 239.29132813 -136.06734375 239.58265625 -136.6171875 239.8828125 C-141.79052034 242.7290406 -146.84004019 245.71507294 -151.8359375 248.86328125 C-154 250 -154 250 -157 250 C-157.33 250.99 -157.66 251.98 -158 253 C-160.37109375 254.39453125 -160.37109375 254.39453125 -163.4375 255.8125 C-168.33884262 258.15864031 -172.97448457 260.70751963 -177.60546875 263.54296875 C-180.04822195 265.02934223 -182.51174836 266.46618129 -185 267.875 C-185.721875 268.28492188 -186.44375 268.69484375 -187.1875 269.1171875 C-189 270 -189 270 -191 270 C-191 270.66 -191 271.32 -191 272 C-192.26691507 272.67408308 -193.53870749 273.33900497 -194.8125 274 C-195.52019531 274.37125 -196.22789062 274.7425 -196.95703125 275.125 C-199 276 -199 276 -202 276 C-202 276.66 -202 277.32 -202 278 C-207.00419911 279.92469196 -211.69477234 280.63886619 -217 281 C-217.78503906 281.05414063 -218.57007813 281.10828125 -219.37890625 281.1640625 C-230.86082874 281.56952365 -240.30441989 277.89750837 -250 272 C-250 271.34 -250 270.68 -250 270 C-245.44904551 271.77578079 -241.04515956 273.81106966 -236.62109375 275.87890625 C-227.95410613 279.58594864 -215.61118827 279.40288691 -206.734375 276.23046875 C-196.26053624 271.51724131 -186.35348985 265.71708386 -176.5546875 259.75 C-170.53654986 256.09623018 -164.45118787 252.55597961 -158.375 249 C-157.11365804 248.2611191 -155.85234646 247.52218635 -154.59106445 246.78320312 C-148.88806945 243.44261338 -143.18299583 240.10563111 -137.47343445 236.77627563 C-134.46052469 235.01911046 -131.44866885 233.26014667 -128.4375 231.5 C-127.5412944 230.97614716 -127.5412944 230.97614716 -126.62698364 230.44171143 C-117.63149391 225.17847515 -108.70661375 219.8075005 -99.8125 214.375 C-87.71180632 206.98422157 -75.46634697 199.8648855 -63.16259766 192.81738281 C-55.92787703 188.65995959 -48.72755139 184.44337871 -41.52734375 180.2265625 C-38.03100863 178.17972065 -34.52471708 176.15286301 -31.00390625 174.1484375 C-14.30480218 164.60357189 -5.20172517 154.6051755 1 136 C1.09227708 134.27985135 1.12628586 132.55631628 1.12698364 130.83369446 C1.12980347 129.76412003 1.13262329 128.69454559 1.13552856 127.59255981 C1.13350433 126.41901947 1.1314801 125.24547913 1.12939453 124.03637695 C1.13114685 122.80033218 1.13289917 121.56428741 1.13470459 120.29078674 C1.13835642 116.89795205 1.13749306 113.5051782 1.1343255 110.11234689 C1.13179368 106.55798527 1.134142 103.00362625 1.13571167 99.44926453 C1.13753214 93.47471653 1.1351315 87.50018089 1.13037109 81.52563477 C1.12494115 74.63145335 1.12668238 67.73730156 1.1321975 60.84312087 C1.13674699 54.91771642 1.13736983 48.99232085 1.13475883 43.06691521 C1.13320455 39.53101281 1.13297871 35.99512429 1.13629532 32.45922279 C1.13974079 28.50966889 1.13495433 24.56014766 1.12939453 20.6105957 C1.13243088 18.86546692 1.13243088 18.86546692 1.13552856 17.08508301 C1.12045824 11.29347783 0.87712989 5.72702857 0 0 Z " fill="#44464F" transform="translate(517,213)"/>
<path d="M0 0 C3.74217145 1.60075488 7.08424391 3.6733991 10.5 5.875 C11.40492188 6.43058594 12.30984375 6.98617187 13.2421875 7.55859375 C19.83262336 11.66524673 19.83262336 11.66524673 21 14 C17.33118845 13.29445932 14.29549466 11.72264494 11 10 C11 9.34 11 8.68 11 8 C10.41992188 7.88914063 9.83984375 7.77828125 9.2421875 7.6640625 C6.77108191 6.93220196 5.2096976 5.87363804 3.125 4.375 C0.49249744 2.71338371 -0.65463033 2.01534976 -3.8125 1.875 C-13.18770142 5.14457883 -13.18770142 5.14457883 -21 11 C-22.6597005 11.98587867 -24.3514047 12.91879123 -26.0625 13.8125 C-29.81158118 15.80805836 -33.49463015 17.85814397 -37.125 20.0625 C-40.39419164 22.04177098 -43.67554546 23.98972626 -47 25.875 C-47.721875 26.28492188 -48.44375 26.69484375 -49.1875 27.1171875 C-51 28 -51 28 -53 28 C-53 28.66 -53 29.32 -53 30 C-53.75925781 30.32613281 -54.51851563 30.65226562 -55.30078125 30.98828125 C-56.79158203 31.64376953 -56.79158203 31.64376953 -58.3125 32.3125 C-59.29863281 32.74175781 -60.28476562 33.17101562 -61.30078125 33.61328125 C-63.78582989 34.8899705 -65.13349115 35.99159282 -67 38 C-72.44444444 41 -72.44444444 41 -75 41 C-75 41.66 -75 42.32 -75 43 C-75.79664063 43.38671875 -76.59328125 43.7734375 -77.4140625 44.171875 C-82.85567622 46.84634208 -88.05080136 49.4993473 -93 53 C-94.65071396 54.02611949 -96.31970006 55.02308143 -98 56 C-98.72832031 56.42796875 -99.45664062 56.8559375 -100.20703125 57.296875 C-101.40392578 57.98523438 -101.40392578 57.98523438 -102.625 58.6875 C-103.75808594 59.34298828 -103.75808594 59.34298828 -104.9140625 60.01171875 C-107 61 -107 61 -110 61 C-110.33 61.99 -110.66 62.98 -111 64 C-112.79296875 65.0703125 -112.79296875 65.0703125 -115.1875 66.125 C-119.75967549 68.28317179 -123.91456002 70.78732189 -128.125 73.5625 C-132.32905382 76.32317882 -136.49242436 78.90698431 -141.05859375 81.02734375 C-144.44345123 82.72317778 -147.60594228 84.8018849 -150.80078125 86.828125 C-153 88 -153 88 -156 88 C-156.33 88.99 -156.66 89.98 -157 91 C-158.63671875 92.02734375 -158.63671875 92.02734375 -160.6875 92.9375 C-163.39921451 94.20135266 -165.67456936 95.4497129 -168.1875 97.125 C-170.76029698 98.84019799 -173.15058141 99.86023257 -176 101 C-176.495 101.99 -176.495 101.99 -177 103 C-177.99 102.67 -178.98 102.34 -180 102 C-180 101.34 -180 100.68 -180 100 C-179.13503906 99.52433594 -178.27007812 99.04867187 -177.37890625 98.55859375 C-168.92157912 93.87120623 -160.59290169 88.99307569 -152.3125 84 C-143.05529623 78.41876314 -133.76653752 72.89757552 -124.4375 67.4375 C-123.82706848 67.0802182 -123.21663696 66.7229364 -122.58770752 66.35482788 C-118.39327701 63.90069585 -114.1968872 61.44992767 -110 59 C-108.39995117 58.06559082 -108.39995117 58.06559082 -106.76757812 57.11230469 C-100.81980393 53.63932991 -94.87011969 50.16964279 -88.91943359 46.70166016 C-83.9454882 43.80247974 -78.9728183 40.90111308 -74 38 C-72.0000059 36.83332322 -70.00000591 35.66665654 -68 34.5 C-67.01 33.9225 -66.02 33.345 -65 32.75 C-56 27.5 -56 27.5 -52.99536133 25.74731445 C-51.01079992 24.58964015 -49.02626186 23.43192581 -47.04174805 22.27416992 C-41.80573605 19.21957831 -36.56922829 16.16584069 -31.33203125 13.11328125 C-29.69524414 12.15905273 -29.69524414 12.15905273 -28.02539062 11.18554688 C-25.93439425 9.96654048 -23.84325584 8.74777765 -21.75195312 7.52929688 C-20.80900391 6.97951172 -19.86605469 6.42972656 -18.89453125 5.86328125 C-18.06800049 5.38157471 -17.24146973 4.89986816 -16.38989258 4.40356445 C-14.72245655 3.42429285 -13.07829575 2.40476766 -11.45385742 1.35571289 C-7.5548822 -0.79840206 -4.33583989 -0.82190372 0 0 Z " fill="#4B4D55" transform="translate(370,150)"/>
<path d="M0 0 C0 0.99 0 1.98 0 3 C-5.625 6 -5.625 6 -9 6 C-9 6.66 -9 7.32 -9 8 C-9.83402344 8.44730469 -10.66804687 8.89460938 -11.52734375 9.35546875 C-12.65269531 9.96003906 -13.77804687 10.56460937 -14.9375 11.1875 C-15.52635986 11.50340088 -16.11521973 11.81930176 -16.72192383 12.14477539 C-20.94919305 14.41807615 -25.13574255 16.75364737 -29.29296875 19.15234375 C-31 20 -31 20 -33 20 C-33 20.66 -33 21.32 -33 22 C-33.53367187 22.29132813 -34.06734375 22.58265625 -34.6171875 22.8828125 C-39.79052034 25.7290406 -44.84004019 28.71507294 -49.8359375 31.86328125 C-52 33 -52 33 -55 33 C-55.33 33.99 -55.66 34.98 -56 36 C-58.37109375 37.39453125 -58.37109375 37.39453125 -61.4375 38.8125 C-66.33884262 41.15864031 -70.97448457 43.70751963 -75.60546875 46.54296875 C-78.04822195 48.02934223 -80.51174836 49.46618129 -83 50.875 C-83.721875 51.28492188 -84.44375 51.69484375 -85.1875 52.1171875 C-87 53 -87 53 -89 53 C-89 53.66 -89 54.32 -89 55 C-90.26691507 55.67408308 -91.53870749 56.33900497 -92.8125 57 C-93.52019531 57.37125 -94.22789062 57.7425 -94.95703125 58.125 C-97 59 -97 59 -100 59 C-100 59.66 -100 60.32 -100 61 C-105.00419911 62.92469196 -109.69477234 63.63886619 -115 64 C-115.78503906 64.05414063 -116.57007813 64.10828125 -117.37890625 64.1640625 C-128.86082874 64.56952365 -138.30441989 60.89750837 -148 55 C-148 54.34 -148 53.68 -148 53 C-143.44904551 54.77578079 -139.04515956 56.81106966 -134.62109375 58.87890625 C-125.95410613 62.58594864 -113.61118827 62.40288691 -104.734375 59.23046875 C-94.26053624 54.51724131 -84.35348985 48.71708386 -74.5546875 42.75 C-68.53655423 39.09623283 -62.45130044 35.5557809 -56.375 32 C-55.12831375 31.26989577 -53.8816505 30.53975226 -52.63500977 29.80957031 C-46.74506569 26.36032338 -40.85335095 22.91410723 -34.96105957 19.46887207 C-32.33403242 17.93253244 -29.70753271 16.39529258 -27.08111572 14.85791016 C-25.23544124 13.77804929 -23.38897685 12.69954841 -21.54248047 11.62109375 C-16.18495444 8.48527798 -10.85239205 5.34945658 -5.67700195 1.91894531 C-3.81400529 0.89808064 -2.07310398 0.42964123 0 0 Z " fill="#3A3B46" transform="translate(415,430)"/>
<path d="M0 0 C0 33.33 0 66.66 0 101 C-0.33 101 -0.66 101 -1 101 C-1 68.99 -1 36.98 -1 4 C-7.25055587 7.12527794 -12.94719271 10.08389377 -18.7734375 13.765625 C-20.88021194 14.93359118 -22.64700093 15.5487399 -25 16 C-25 16.66 -25 17.32 -25 18 C-26.98 18.66 -28.96 19.32 -31 20 C-31 20.66 -31 21.32 -31 22 C-31.66 22 -32.32 22 -33 22 C-32.67 54.34 -32.34 86.68 -32 120 C-32.66 120 -33.32 120 -34 120 C-34 86.67 -34 53.34 -34 19 C-24.76 13.72 -15.52 8.44 -6 3 C-1 0 -1 0 0 0 Z " fill="#373944" transform="translate(348,328)"/>
<path d="M0 0 C0 0.66 0 1.32 0 2 C-0.66 2 -1.32 2 -2 2 C-2 2.66 -2 3.32 -2 4 C-2.94359375 4.45439453 -2.94359375 4.45439453 -3.90625 4.91796875 C-8.87809576 7.35147759 -13.6152027 9.89447671 -18.2109375 12.984375 C-20.12490865 14.07090884 -21.85138517 14.56459788 -24 15 C-24 15.66 -24 16.32 -24 17 C-29.75 20 -29.75 20 -32 20 C-32 52.67 -32 85.34 -32 119 C-32.66 119 -33.32 119 -34 119 C-34.34805595 106.117931 -34.61431579 93.23698534 -34.77718258 80.35116673 C-34.85536843 74.36693977 -34.96132721 68.38593591 -35.1315918 62.40356445 C-35.29498941 56.62608862 -35.3843385 50.85170428 -35.42315865 45.07209587 C-35.45080651 42.87128948 -35.50480741 40.67064658 -35.58595085 38.4711628 C-36.18092753 21.6702631 -36.18092753 21.6702631 -32.53852654 17.21061516 C-28.99376949 14.2353423 -25.09169914 12.37657202 -20.79619217 10.72515106 C-18.32173369 9.72617321 -16.13159529 8.36591142 -13.88671875 6.93359375 C-12.48728359 6.10105058 -11.08755904 5.26899359 -9.6875 4.4375 C-8.96111328 4.00115234 -8.23472656 3.56480469 -7.48632812 3.11523438 C-2.22906446 0 -2.22906446 0 0 0 Z " fill="#373943" transform="translate(416,289)"/>
<path d="M0 0 C0 13.2 0 26.4 0 40 C-0.33 40 -0.66 40 -1 40 C-1.33 28.12 -1.66 16.24 -2 4 C-5.63 5.98 -9.26 7.96 -13 10 C-18.6875 13 -18.6875 13 -21.19921875 14.3125 C-22.58560547 15.1478125 -22.58560547 15.1478125 -24 16 C-24.65722298 16.37736612 -25.31444595 16.75473225 -25.99158478 17.14353371 C-30.25533075 19.84501056 -30.25533075 19.84501056 -32.72698975 24.08054733 C-32.98447427 26.58423914 -32.9907935 28.97794261 -32.90820312 31.49365234 C-32.90937134 32.43087128 -32.91053955 33.36809021 -32.91174316 34.33370972 C-32.90618693 37.41931434 -32.84405257 40.5010118 -32.78125 43.5859375 C-32.76632269 45.72968433 -32.75493799 47.87345852 -32.74694824 50.01724243 C-32.71645318 55.65024628 -32.63791113 61.2815907 -32.54931641 66.91394043 C-32.46736916 72.66505485 -32.43091769 78.41643835 -32.390625 84.16796875 C-32.30491575 95.44604022 -32.16843919 106.72288194 -32 118 C-32.99 118.495 -32.99 118.495 -34 119 C-34.30151494 106.10044089 -34.53234472 93.20172254 -34.67355824 80.29935455 C-34.74134463 74.3076768 -34.8332348 68.31841311 -34.98071289 62.328125 C-35.12221422 56.54424955 -35.19974097 50.76269155 -35.23340416 44.97721863 C-35.25738359 42.77291872 -35.30421692 40.56874268 -35.37449074 38.36543274 C-35.88958462 21.54291446 -35.88958462 21.54291446 -32.74827766 17.31549072 C-29.27932086 14.20722462 -25.33295103 12.64960934 -21 11 C-19.19482982 9.97187077 -17.4049449 8.91551082 -15.64453125 7.8125 C-14.03489074 6.87322137 -12.42423673 5.93567709 -10.8125 5 C-9.98169922 4.51144531 -9.15089844 4.02289063 -8.29492188 3.51953125 C-7.10672852 2.82923828 -7.10672852 2.82923828 -5.89453125 2.125 C-5.19175049 1.71507812 -4.48896973 1.30515625 -3.76489258 0.8828125 C-2 0 -2 0 0 0 Z " fill="#282A36" transform="translate(485,249)"/>
<path d="M0 0 C3.35594194 1.2632842 5.63290296 2.25915079 8 5 C5.03 4.505 5.03 4.505 2 4 C2 34.69 2 65.38 2 97 C-0.66639907 94.33360093 -0.23641421 92.34755442 -0.24884033 88.72233582 C-0.24164978 87.84120621 -0.23445923 86.9600766 -0.22705078 86.05224609 C-0.22734283 85.12536484 -0.22763489 84.19848358 -0.22793579 83.24351501 C-0.22653889 80.17006166 -0.21096075 77.09684867 -0.1953125 74.0234375 C-0.19158365 71.89637382 -0.18873608 69.76930844 -0.18673706 67.64224243 C-0.17909052 62.03620688 -0.15943327 56.4302745 -0.1373291 50.82427979 C-0.11689264 45.10682572 -0.10774006 39.38935504 -0.09765625 33.671875 C-0.07618834 22.44787127 -0.0420401 11.2239442 0 0 Z " fill="#53545C" transform="translate(176,284)"/>
<path d="M0 0 C0.66 0.33 1.32 0.66 2 1 C1.34 1.99 0.68 2.98 0 4 C-0.99 4 -1.98 4 -3 4 C-3.33 4.99 -3.66 5.98 -4 7 C-5.93359375 8.17578125 -5.93359375 8.17578125 -8.4375 9.3125 C-16.09118316 12.94827246 -23.19571805 17.4310582 -30.30859375 22.01953125 C-32 23 -32 23 -35 24 C-36.00676109 24.99319288 -37.00627728 25.99376188 -38 27 C-42.46055419 29.75812519 -46.74189589 31.47418959 -52 32 C-49.41175111 29.07597828 -46.43135768 27.3567952 -43.06640625 25.41015625 C-42.48042664 25.06906326 -41.89444702 24.72797028 -41.29071045 24.37654114 C-39.38378542 23.2675269 -37.47326452 22.16488363 -35.5625 21.0625 C-32.93106103 19.5372713 -30.30128824 18.00918653 -27.671875 16.48046875 C-27.01798294 16.1008197 -26.36409088 15.72117065 -25.69038391 15.33001709 C-21.66726176 12.98879568 -17.67430556 10.60454909 -13.703125 8.17578125 C-12.78200928 7.6130249 -11.86089355 7.05026855 -10.91186523 6.47045898 C-9.20952092 5.42558061 -7.51094666 4.374529 -5.81665039 3.31665039 C-5.06891357 2.85895264 -4.32117676 2.40125488 -3.55078125 1.9296875 C-2.58652222 1.33003174 -2.58652222 1.33003174 -1.6027832 0.71826172 C-1.07386475 0.48123535 -0.54494629 0.24420898 0 0 Z " fill="#50515A" transform="translate(465,399)"/>
<path d="M0 0 C-4.14432277 3.10824208 -8.13913829 5.66869747 -12.8125 7.88671875 C-16.27378019 9.64826313 -19.5229338 11.74923902 -22.80078125 13.828125 C-25 15 -25 15 -28 15 C-28.33 15.99 -28.66 16.98 -29 18 C-30.63671875 19.02734375 -30.63671875 19.02734375 -32.6875 19.9375 C-35.39921451 21.20135266 -37.67456936 22.4497129 -40.1875 24.125 C-42.76029698 25.84019799 -45.15058141 26.86023257 -48 28 C-48.33 28.66 -48.66 29.32 -49 30 C-49.99 29.67 -50.98 29.34 -52 29 C-52 28.34 -52 27.68 -52 27 C-51.13503906 26.52433594 -50.27007812 26.04867187 -49.37890625 25.55859375 C-37.28243654 18.85310261 -25.44552006 11.72600257 -13.60864258 4.57470703 C-12.74779053 4.05505371 -11.88693848 3.53540039 -11 3 C-9.66328247 2.17991455 -9.66328247 2.17991455 -8.29956055 1.34326172 C-3.23282574 -1.61641287 -3.23282574 -1.61641287 0 0 Z " fill="#40424C" transform="translate(242,223)"/>
<path d="M0 0 C3.74217145 1.60075488 7.08424391 3.6733991 10.5 5.875 C11.85738281 6.70837891 11.85738281 6.70837891 13.2421875 7.55859375 C19.83262336 11.66524673 19.83262336 11.66524673 21 14 C17.33118845 13.29445932 14.29549466 11.72264494 11 10 C11 9.34 11 8.68 11 8 C10.41992188 7.88914063 9.83984375 7.77828125 9.2421875 7.6640625 C6.77108191 6.93220196 5.2096976 5.87363804 3.125 4.375 C0.49249744 2.71338371 -0.65463033 2.01534976 -3.8125 1.875 C-13.18581308 5.14763761 -13.18581308 5.14763761 -21 11 C-22.72171227 12.02809252 -24.47562612 13.00322772 -26.25 13.9375 C-29.57396802 15.69854266 -32.84618846 17.48739953 -36.0625 19.4375 C-37.031875 19.953125 -38.00125 20.46875 -39 21 C-39.66 20.67 -40.32 20.34 -41 20 C-38.53346392 17.25319924 -35.82168026 15.58661619 -32.6328125 13.75 C-31.58222656 13.1415625 -30.53164063 12.533125 -29.44921875 11.90625 C-28.35222656 11.2771875 -27.25523437 10.648125 -26.125 10 C-23.9608414 8.75016639 -21.7967756 7.50017207 -19.6328125 6.25 C-18.67262207 5.69828125 -17.71243164 5.1465625 -16.72314453 4.578125 C-14.92682677 3.53711747 -13.15352949 2.45519123 -11.40771484 1.33154297 C-7.53518209 -0.81009094 -4.30497109 -0.81605221 0 0 Z " fill="#474952" transform="translate(370,150)"/>
<path d="M0 0 C0 13.2 0 26.4 0 40 C-0.33 40 -0.66 40 -1 40 C-1.33 28.12 -1.66 16.24 -2 4 C-9.50946498 8.0631407 -9.50946498 8.0631407 -16.875 12.375 C-19.97275801 13.98583416 -21.58037046 14.41450055 -25 14 C-20.69806123 10.67066816 -16.07656444 8.03168839 -11.375 5.3125 C-10.50359375 4.80138672 -9.6321875 4.29027344 -8.734375 3.76367188 C-7.48527344 3.03954102 -7.48527344 3.03954102 -6.2109375 2.30078125 C-5.45087402 1.85903564 -4.69081055 1.41729004 -3.90771484 0.9621582 C-2 0 -2 0 0 0 Z " fill="#32343F" transform="translate(485,249)"/>
<path d="M0 0 C4.55095449 1.77578079 8.95484044 3.81106966 13.37890625 5.87890625 C18.23283388 7.95502731 22.56131302 8.18265126 27.8125 8.1875 C28.49892578 8.19974609 29.18535156 8.21199219 29.89257812 8.22460938 C34.59129563 8.23794538 38.48240883 7.41870166 43 6 C45.9375 5.875 45.9375 5.875 48 6 C48 6.66 48 7.32 48 8 C42.99580089 9.92469196 38.30522766 10.63886619 33 11 C32.21496094 11.05414063 31.42992187 11.10828125 30.62109375 11.1640625 C19.13917126 11.56952365 9.69558011 7.89750837 0 2 C0 1.34 0 0.68 0 0 Z " fill="#31333E" transform="translate(267,483)"/>
<path d="M0 0 C2 2 2 2 2 5 C1.34 5 0.68 5 0 5 C-0.12375 5.886875 -0.2475 6.77375 -0.375 7.6875 C-0.94412736 10.70387502 -1.76614436 13.20326054 -3 16 C-3.66 16 -4.32 16 -5 16 C-5.226875 16.70125 -5.45375 17.4025 -5.6875 18.125 C-7.91177926 22.99723077 -11.37498038 27.22498823 -16 30 C-16.99 30 -17.98 30 -19 30 C-17.90317982 27.03858552 -16.86303682 25.89488872 -14.3125 23.9375 C-6.96025835 18.07727805 -3.02533626 8.66260879 0 0 Z " fill="#3D3E48" transform="translate(517,352)"/>
<path d="M0 0 C1.32 0 2.64 0 4 0 C4 0.66 4 1.32 4 2 C3.39414062 2.29132813 2.78828125 2.58265625 2.1640625 2.8828125 C-3.34175529 5.57642798 -8.59131129 8.49092635 -13.7734375 11.765625 C-15.88021194 12.93359118 -17.64700093 13.5487399 -20 14 C-20 14.66 -20 15.32 -20 16 C-23.13498292 17.85776765 -25.37471432 18.20140476 -29 18 C-25.65726429 15.21072993 -22.31917647 12.91419454 -18.515625 10.80078125 C-17.49855469 10.23166016 -16.48148437 9.66253906 -15.43359375 9.07617188 C-13.85771484 8.2031543 -13.85771484 8.2031543 -12.25 7.3125 C-10.15027362 6.14330533 -8.05127383 4.97280451 -5.953125 3.80078125 C-4.56335449 3.02988159 -4.56335449 3.02988159 -3.14550781 2.2434082 C-1.08831342 1.17405797 -1.08831342 1.17405797 0 0 Z " fill="#464851" transform="translate(343,330)"/>
<path d="M0 0 C0 0.66 0 1.32 0 2 C-0.66 2 -1.32 2 -2 2 C-2 2.66 -2 3.32 -2 4 C-2.94359375 4.45439453 -2.94359375 4.45439453 -3.90625 4.91796875 C-8.87809576 7.35147759 -13.6152027 9.89447671 -18.2109375 12.984375 C-20.12490865 14.07090884 -21.85138517 14.56459788 -24 15 C-24 15.66 -24 16.32 -24 17 C-25.96466413 18.06775224 -27.96855359 19.06553465 -30 20 C-30.66 19.67 -31.32 19.34 -32 19 C-28.97470107 15.70281518 -25.86341798 13.55595875 -21.9921875 11.328125 C-21.42549347 11.00084412 -20.85879944 10.67356323 -20.27493286 10.33636475 C-19.08494681 9.65103547 -17.89316994 8.96880721 -16.69970703 8.28955078 C-14.86923605 7.24671623 -13.04567689 6.19251275 -11.22265625 5.13671875 C-2.27822321 0 -2.27822321 0 0 0 Z " fill="#363843" transform="translate(416,289)"/>
<path d="M0 0 C0.66 0.33 1.32 0.66 2 1 C1.01 2.485 1.01 2.485 0 4 C-0.99 4 -1.98 4 -3 4 C-3.33 4.99 -3.66 5.98 -4 7 C-6.14453125 8.28125 -6.14453125 8.28125 -8.8125 9.5 C-11.46259555 10.72131434 -13.7767608 11.82766768 -16.08984375 13.61328125 C-18.87353258 15.63415965 -21.63700715 15.6766353 -25 16 C-21.09381414 11.7100344 -15.88487753 9.17130863 -10.9375 6.25 C-9.91849609 5.63511719 -8.89949219 5.02023438 -7.84960938 4.38671875 C-6.87701172 3.81050781 -5.90441406 3.23429688 -4.90234375 2.640625 C-4.01023193 2.10985352 -3.11812012 1.57908203 -2.19897461 1.03222656 C-1.11048218 0.52127441 -1.11048218 0.52127441 0 0 Z " fill="#53545D" transform="translate(263,207)"/>
<path d="M0 0 C5.96122898 2.21822557 11.15142792 5.5725309 16.5625 8.875 C18.12387695 9.81279297 18.12387695 9.81279297 19.71679688 10.76953125 C20.71904297 11.37925781 21.72128906 11.98898438 22.75390625 12.6171875 C23.66470947 13.17003418 24.5755127 13.72288086 25.51391602 14.29248047 C27.98491873 15.98964172 29.95696961 17.81468235 32 20 C28.73892137 19.37988438 26.63016472 18.23007992 23.9375 16.3125 C20.53339888 13.96658163 17.09568128 11.92562598 13.4375 10 C8.62763376 7.43247985 4.10478866 4.61080264 0 1 C0 0.67 0 0.34 0 0 Z " fill="#4B4D55" transform="translate(399,169)"/>
<path d="M0 0 C0.66 0.33 1.32 0.66 2 1 C1.01 2.485 1.01 2.485 0 4 C-0.99 4 -1.98 4 -3 4 C-3.33 4.99 -3.66 5.98 -4 7 C-6.65234375 8.421875 -6.65234375 8.421875 -9.9375 9.75 C-11.01902344 10.19859375 -12.10054688 10.6471875 -13.21484375 11.109375 C-16 12 -16 12 -18 11 C-15.04968544 9.13283045 -12.08856877 7.28354701 -9.125 5.4375 C-8.28324219 4.90447266 -7.44148438 4.37144531 -6.57421875 3.82226562 C-5.76855469 3.32275391 -4.96289062 2.82324219 -4.1328125 2.30859375 C-3.01737061 1.60947876 -3.01737061 1.60947876 -1.87939453 0.89624023 C-1.25919434 0.60048096 -0.63899414 0.30472168 0 0 Z " fill="#53555D" transform="translate(465,399)"/>
<path d="M0 0 C0.66 0.33 1.32 0.66 2 1 C0.16429724 5.78302552 -3.01232468 6.86651137 -7.4453125 8.9609375 C-10.28666386 10.11659417 -12.94019871 10.75843674 -16 11 C-13.27587303 7.91460888 -9.90811219 5.88811092 -6.4375 3.75 C-5.84775391 3.37359375 -5.25800781 2.9971875 -4.65039062 2.609375 C-3.13894996 1.6739669 -1.57228969 0.82906354 0 0 Z " fill="#50515A" transform="translate(429,420)"/>
<path d="M0 0 C4.66035051 0.29127191 7.21850124 2.52185089 10.73046875 5.30859375 C14.00818937 7.75137005 17.53139044 9.70734524 21.09375 11.703125 C21.7228125 12.13109375 22.351875 12.5590625 23 13 C23 13.66 23 14.32 23 15 C22.01 15.33 21.02 15.66 20 16 C20 15.01 20 14.02 20 13 C19.33613281 12.77441406 18.67226563 12.54882812 17.98828125 12.31640625 C14.0853744 10.5970865 10.7120414 8.32204619 7.1875 5.9375 C6.49462891 5.47794922 5.80175781 5.01839844 5.08789062 4.54492188 C3.37141668 3.39327778 1.68286015 2.20022856 0 1 C0 0.67 0 0.34 0 0 Z " fill="#494A53" transform="translate(450,201)"/>
<path d="M0 0 C3.36415551 1.26705319 6.37031789 2.71113193 9.42578125 4.6015625 C10.22177734 5.09140625 11.01777344 5.58125 11.83789062 6.0859375 C12.65451172 6.59382813 13.47113281 7.10171875 14.3125 7.625 C15.14845703 8.140625 15.98441406 8.65625 16.84570312 9.1875 C18.89931199 10.45487004 20.95063341 11.72578573 23 13 C22.01 13.33 21.02 13.66 20 14 C17.74111389 12.80723745 15.68454879 11.5887635 13.5625 10.1875 C8.42198786 6.84844437 8.42198786 6.84844437 3 4 C3 3.34 3 2.68 3 2 C2.01 1.67 1.02 1.34 0 1 C0 0.67 0 0.34 0 0 Z " fill="#3B3D48" transform="translate(216,309)"/>
<path d="M0 0 C0 4.1692488 -2.25591161 6.13046757 -5 9 C-8.4 12 -8.4 12 -12 12 C-10.47940093 8.11985064 -8.13921469 6.26093438 -4.875 3.75 C-3.96492188 3.04359375 -3.05484375 2.3371875 -2.1171875 1.609375 C-1.41851562 1.07828125 -0.71984375 0.5471875 0 0 Z " fill="#363843" transform="translate(510,370)"/>
<path d="M0 0 C0 0.66 0 1.32 0 2 C-1.01320313 2.48919922 -1.01320313 2.48919922 -2.046875 2.98828125 C-3.38492187 3.64376953 -3.38492187 3.64376953 -4.75 4.3125 C-5.63171875 4.74175781 -6.5134375 5.17101562 -7.421875 5.61328125 C-9.81600215 6.90103146 -11.87776958 8.30915754 -14 10 C-14.66 9.67 -15.32 9.34 -16 9 C-11.66615753 4.12442722 -6.63368774 0 0 0 Z " fill="#393B46" transform="translate(347,330)"/>
<path d="M0 0 C0.66 0.33 1.32 0.66 2 1 C-0.44241929 5.27423375 -4.38428859 7.55592906 -9 9 C-11.25390625 8.60546875 -11.25390625 8.60546875 -13 8 C-10.880788 6.63594382 -8.75551882 5.28368225 -6.625 3.9375 C-6.02171875 3.54755859 -5.4184375 3.15761719 -4.796875 2.75585938 C-3.23507443 1.77539568 -1.62007786 0.88083925 0 0 Z " fill="#4E5058" transform="translate(328,169)"/>
<path d="M0 0 C-1.66215268 1.33895632 -3.32963607 2.67130142 -5 4 C-6.0828125 4.86625 -6.0828125 4.86625 -7.1875 5.75 C-9 7 -9 7 -11 7 C-10.9375 5.25 -10.9375 5.25 -10 3 C-6.69928831 0.41203839 -4.20321079 -1.40107026 0 0 Z " fill="#30323D" transform="translate(462,264)"/>
<path d="M0 0 C-4.82624485 3.84129692 -7.83543524 5.62257767 -14 6 C-10.6606106 2.30909593 -5.08263987 -2.54131994 0 0 Z " fill="#494B54" transform="translate(242,223)"/>
<path d="M0 0 C-1.78524649 1.19713017 -3.5784028 2.38247279 -5.375 3.5625 C-6.87160156 4.55443359 -6.87160156 4.55443359 -8.3984375 5.56640625 C-9.25695312 6.03949219 -10.11546875 6.51257813 -11 7 C-11.66 6.67 -12.32 6.34 -13 6 C-9.70862872 2.32140857 -5.25202969 -2.62601484 0 0 Z " fill="#3C3E48" transform="translate(232,229)"/>
<path d="M0 0 C0 0.66 0 1.32 0 2 C-0.66 2 -1.32 2 -2 2 C-2 2.66 -2 3.32 -2 4 C-3.96466413 5.06775224 -5.96855359 6.06553465 -8 7 C-8.66 6.67 -9.32 6.34 -10 6 C-4.4 0 -4.4 0 0 0 Z " fill="#30323D" transform="translate(394,302)"/>
<path d="M0 0 C2 2 2 2 2 5 C1.34 5 0.68 5 0 5 C-0.33 6.98 -0.66 8.96 -1 11 C-1.99 11.33 -2.98 11.66 -4 12 C-2.66666667 8 -1.33333333 4 0 0 Z " fill="#44454F" transform="translate(517,352)"/>
<path d="M0 0 C1.32 0 2.64 0 4 0 C4 0.66 4 1.32 4 2 C4.598125 2.0825 5.19625 2.165 5.8125 2.25 C8.5966296 3.20455872 9.43311142 4.57132271 11 7 C7.87691494 6.39196574 5.80748338 5.37985958 3.25 3.5 C2.63640625 3.0565625 2.0228125 2.613125 1.390625 2.15625 C0.93171875 1.7746875 0.4728125 1.393125 0 1 C0 0.67 0 0.34 0 0 Z " fill="#61636A" transform="translate(431,189)"/>
<path d="M0 0 C-1.28524261 0.86380259 -2.57842419 1.71580369 -3.875 2.5625 C-4.59429687 3.03816406 -5.31359375 3.51382812 -6.0546875 4.00390625 C-6.69664062 4.33261719 -7.33859375 4.66132813 -8 5 C-8.66 4.67 -9.32 4.34 -10 4 C-4.4 -2.2 -4.4 -2.2 0 0 Z " fill="#3A3C46" transform="translate(451,411)"/>
<path d="M0 0 C2.475 0.495 2.475 0.495 5 1 C5 1.66 5 2.32 5 3 C7.475 3.99 7.475 3.99 10 5 C7 6 7 6 4.3125 4.6875 C3.549375 4.130625 2.78625 3.57375 2 3 C2 2.34 2 1.68 2 1 C1.34 0.67 0.68 0.34 0 0 Z " fill="#55575F" transform="translate(212,449)"/>
<path d="M0 0 C0 0.66 0 1.32 0 2 C-3.13498292 3.85776765 -5.37471432 4.20140476 -9 4 C-4.5 0 -4.5 0 0 0 Z " fill="#3F414B" transform="translate(323,344)"/>
<path d="M0 0 C0.66 0.33 1.32 0.66 2 1 C-1.07999946 4.67230705 -3.2482602 5.56802365 -8 6 C-5.63404067 3.38499232 -3.13950774 1.61000397 0 0 Z " fill="#54555D" transform="translate(219,233)"/>
<path d="M0 0 C0 0.66 0 1.32 0 2 C-2.64738916 3.4606285 -3.89448334 4 -7 4 C-6.67 3.01 -6.34 2.02 -6 1 C-4 0 -4 0 0 0 Z " fill="#41424C" transform="translate(317,178)"/>
<path d="M0 0 C2.875 0.25 2.875 0.25 6 1 C7.375 3.0625 7.375 3.0625 8 5 C4.62496331 3.8141763 2.35277269 2.72426311 0 0 Z " fill="#6D6F74" transform="translate(254,475)"/>
<path d="M0 0 C2.25 0.25 2.25 0.25 4 1 C2.02 2.32 0.04 3.64 -2 5 C-2.66 4.67 -3.32 4.34 -4 4 C-2.25 1.9375 -2.25 1.9375 0 0 Z " fill="#3C3E48" transform="translate(481,390)"/>
<path d="M0 0 C-5.2734375 3.22265625 -5.2734375 3.22265625 -7 4 C-7.66 3.67 -8.32 3.34 -9 3 C-6.38220849 -0.01046024 -3.86655673 -1.93327837 0 0 Z " fill="#393B45" transform="translate(338,167)"/>
</svg>
